<svg width="48" height="48" viewBox="0 0 48 48" fill="none" xmlns="http://www.w3.org/2000/svg">
<path d="M23.3272 10.2154C23.6075 9.64109 24.393 9.64111 24.6732 10.2154L26.3252 13.6017C26.4349 13.8265 26.6408 13.9829 26.8794 14.0226L30.4706 14.62C31.0792 14.7213 31.3219 15.5004 30.8865 15.9562L28.3156 18.6488C28.1454 18.8272 28.0668 19.0798 28.1044 19.3287L28.671 23.0866C28.767 23.723 28.1318 24.2047 27.5821 23.9123L24.343 22.1888C24.1278 22.0741 23.8727 22.0741 23.6574 22.1888L20.4184 23.9123C19.8687 24.2047 19.2334 23.723 19.3294 23.0866L19.8961 19.3287C19.9336 19.0798 19.8551 18.8272 19.6848 18.6488L17.1138 15.9562C16.6786 15.5004 16.9212 14.7213 17.5298 14.62L21.121 14.0226C21.3596 13.9829 21.5655 13.8265 21.6752 13.6017L23.3272 10.2154Z" stroke="#BCE955" stroke-width="2.5" stroke-linecap="round" stroke-linejoin="round"/>
<path d="M38.2147 17.9077C38.2147 25.7586 31.8504 32.1229 23.9995 32.1229C16.1486 32.1229 9.78418 25.7586 9.78418 17.9077C9.78418 10.0568 16.1486 3.69238 23.9995 3.69238C31.8504 3.69238 38.2147 10.0568 38.2147 17.9077Z" stroke="#BCE955" stroke-width="2.5" stroke-linecap="round" stroke-linejoin="round"/>
<path d="M26.0303 32.8184L29.3331 41.5687C29.9986 43.3318 30.3314 44.2133 30.9102 44.3076C31.4904 44.2219 32.2011 43.2524 32.8958 41.4994C33.3934 40.2442 33.6419 39.6167 34.1543 39.2784C34.3115 39.1746 34.4833 39.0926 34.665 39.0347C35.2572 38.8465 35.9383 39.0306 37.3004 39.3988C38.7568 39.7926 39.7685 39.6827 40.168 39.3988C40.2856 39.3154 40.168 39.3925 40.168 39.3925C40.4031 38.9754 40.0857 38.3248 39.4511 37.0234L35.0795 28.0615" stroke="#BCE955" stroke-width="2.5" stroke-linecap="round" stroke-linejoin="round"/>
<path d="M21.9692 32.8176L18.6664 41.5665C18.0009 43.3292 17.3425 44.2132 16.7638 44.3074C16.1835 44.2217 15.8362 43.3455 15.1414 41.5927C14.644 40.3379 14.3574 39.615 13.8451 39.2764C13.688 39.1727 13.5161 39.0908 13.3345 39.033C12.7422 38.8447 12.0612 39.0289 10.6991 39.3971C9.24262 39.7906 8.23093 39.6745 7.83138 39.3906C7.59626 38.9737 7.91365 38.323 8.5484 37.0219L12.9199 28.0614" stroke="#BCE955" stroke-width="2.5" stroke-linecap="round" stroke-linejoin="round"/>
</svg>
