<svg width="40" height="40" viewBox="0 0 40 40" fill="none" xmlns="http://www.w3.org/2000/svg">
<g clip-path="url(#clip0_153_10640)">
<path d="M36.6667 2.66666H3.33333C1.4933 2.66886 0.00220408 4.15995 0 5.99999V30C0.00220408 31.84 1.4933 33.3311 3.33333 33.3333H23.3333V36.6667C23.3334 36.9363 23.4958 37.1793 23.7449 37.2824C23.994 37.3856 24.2807 37.3286 24.4713 37.138L26.6667 34.9427L28.862 37.138C29.0527 37.3286 29.3394 37.3856 29.5884 37.2824C29.8375 37.1793 29.9999 36.9363 30 36.6667V33.3333H36.6667C38.5067 33.3311 39.9978 31.84 40 30V5.99999C39.9978 4.15995 38.5067 2.66886 36.6667 2.66666ZM21.54 15.71C21.437 15.6625 21.3629 15.5685 21.3407 15.4572C21.3186 15.3459 21.351 15.2307 21.428 15.1473C22.0245 14.499 22.0245 13.5017 21.428 12.8533C21.3508 12.7699 21.3182 12.6544 21.3406 12.5429C21.3629 12.4314 21.4373 12.3373 21.5407 12.29C22.3393 11.9184 22.7204 10.9973 22.418 10.17C22.3786 10.0635 22.3927 9.94456 22.4557 9.85012C22.5187 9.75568 22.6232 9.69714 22.7367 9.69266C23.6171 9.65566 24.3223 8.95039 24.3593 8.06999C24.3637 7.95636 24.4224 7.85173 24.517 7.78866C24.6116 7.72558 24.7307 7.71169 24.8373 7.75132C25.6647 8.05197 26.5848 7.67094 26.9573 6.87332C27.0045 6.77007 27.0984 6.69576 27.2097 6.67357C27.321 6.65139 27.4362 6.68403 27.5193 6.76132C28.1679 7.35794 29.1655 7.35794 29.814 6.76132C29.8973 6.68408 30.0127 6.65155 30.1241 6.67386C30.2355 6.69617 30.3295 6.77061 30.3767 6.87399C30.7485 7.67199 31.6689 8.05302 32.496 7.75132C32.6026 7.71169 32.7217 7.72558 32.8163 7.78866C32.911 7.85173 32.9696 7.95636 32.974 8.06999C33.0114 8.9516 33.7183 9.65736 34.6 9.69332C34.7134 9.69759 34.8179 9.75598 34.881 9.85033C34.9441 9.94468 34.9581 10.0636 34.9187 10.17C34.616 10.9974 34.9976 11.9188 35.7967 12.29C35.8997 12.3375 35.9738 12.4315 35.9959 12.5428C36.0181 12.6541 35.9857 12.7693 35.9087 12.8527C35.3121 13.501 35.3121 14.4983 35.9087 15.1467C35.9859 15.2301 36.0184 15.3456 35.9961 15.4571C35.9738 15.5686 35.8994 15.6626 35.796 15.71C34.9974 16.0816 34.6162 17.0027 34.9187 17.83C34.958 17.9365 34.944 18.0554 34.881 18.1499C34.8179 18.2443 34.7135 18.3028 34.6 18.3073C33.7171 18.3428 33.0094 19.0504 32.974 19.9333C32.9696 20.047 32.911 20.1516 32.8163 20.2147C32.7217 20.2777 32.6026 20.2916 32.496 20.252C31.6686 19.951 30.7483 20.3321 30.376 21.13C30.3306 21.2342 30.2364 21.3091 30.1247 21.33C30.0131 21.3533 29.8971 21.3207 29.814 21.2427C29.1653 20.6464 28.168 20.6464 27.5193 21.2427C27.4362 21.3206 27.3203 21.3532 27.2087 21.33C27.0967 21.3091 27.0024 21.2342 26.9567 21.13C26.5851 20.3317 25.6644 19.9506 24.8373 20.2527C24.7307 20.2923 24.6116 20.2784 24.517 20.2153C24.4224 20.1522 24.3637 20.0476 24.3593 19.934C24.324 19.0508 23.6165 18.3428 22.7333 18.3067C22.6199 18.3024 22.5154 18.244 22.4524 18.1497C22.3893 18.0553 22.3753 17.9364 22.4147 17.83C22.7178 17.0034 22.3378 16.0823 21.54 15.71ZM28.8627 28.1947L28.6667 28.3907V22.124C28.7559 22.1238 28.8419 22.1573 28.9073 22.218C29.2163 22.5076 29.6239 22.6687 30.0473 22.6687C30.1606 22.6684 30.2736 22.6573 30.3847 22.6353C30.9152 22.5318 31.3625 22.1774 31.5847 21.6847C31.6628 21.5166 31.8568 21.4365 32.0307 21.5007C32.2335 21.5725 32.4483 21.6049 32.6633 21.596V28.3907L31.1347 26.862C30.8743 26.6017 30.4523 26.6017 30.192 26.862L28.8627 28.1947ZM28.6667 35.0573L27.138 33.5287C26.8777 33.2684 26.4557 33.2684 26.1953 33.5287L24.6667 35.0573V21.5947C24.8817 21.6036 25.0965 21.5712 25.2993 21.4993C25.4729 21.4348 25.6668 21.5147 25.7447 21.6827C25.9675 22.1766 26.4165 22.5315 26.9487 22.634C27.0753 22.659 27.2043 22.67 27.3333 22.6667V30C27.3334 30.2696 27.4958 30.5126 27.7449 30.6158C27.994 30.7189 28.2807 30.6619 28.4713 30.4713L28.6667 30.276V35.0573ZM38.6667 30C38.6667 31.1046 37.7712 32 36.6667 32H30V28.9427L30.6667 28.276L32.862 30.4713C33.0527 30.6619 33.3394 30.7189 33.5884 30.6158C33.8375 30.5126 33.9999 30.2696 34 30V20.8713C34.1861 20.6101 34.2924 20.3004 34.306 19.98C34.3141 19.7951 34.4624 19.6471 34.6473 19.6393C35.1878 19.6185 35.6855 19.3399 35.986 18.8901C36.2864 18.4404 36.3531 17.8739 36.1653 17.3667C36.1017 17.1931 36.1817 16.9998 36.3493 16.922C36.841 16.6961 37.1947 16.2481 37.3002 15.7174C37.4058 15.1867 37.2505 14.6375 36.8827 14.2407C36.7574 14.1044 36.7574 13.8949 36.8827 13.7587C37.2505 13.3619 37.4058 12.8128 37.3002 12.2822C37.1947 11.7516 36.841 11.3037 36.3493 11.078C36.1812 11.0007 36.1008 10.807 36.1647 10.6333C36.3524 10.1261 36.2857 9.5596 35.9853 9.10983C35.6849 8.66007 35.1871 8.3815 34.6467 8.36066C34.4617 8.35288 34.3135 8.20491 34.3053 8.01999C34.2851 7.47933 34.0069 6.98116 33.5571 6.68041C33.1074 6.37966 32.5407 6.31281 32.0333 6.50066C31.8598 6.56619 31.6651 6.48606 31.588 6.31732C31.3621 5.82561 30.9142 5.472 30.3834 5.36644C29.8527 5.26087 29.3035 5.41615 28.9067 5.78399C28.7707 5.90921 28.5613 5.90921 28.4253 5.78399C28.0286 5.41614 27.4795 5.26085 26.9489 5.36643C26.4182 5.472 25.9704 5.82563 25.7447 6.31732C25.6673 6.48615 25.4726 6.56648 25.2987 6.50132C24.7913 6.31348 24.2246 6.38032 23.7749 6.68107C23.3251 6.98182 23.0469 7.48 23.0267 8.02066C23.0185 8.20558 22.8703 8.35354 22.6853 8.36132C22.1449 8.38217 21.6471 8.66074 21.3467 9.1105C21.0463 9.56027 20.9796 10.1268 21.1673 10.634C21.231 10.8075 21.151 11.0008 20.9833 11.0787C20.4916 11.3046 20.138 11.7525 20.0324 12.2832C19.9269 12.814 20.0822 13.3631 20.45 13.76C20.5753 13.8962 20.5753 14.1058 20.45 14.242C20.0821 14.6387 19.9269 15.1878 20.0324 15.7185C20.138 16.2491 20.4916 16.6969 20.9833 16.9227C21.1515 17 21.2319 17.1936 21.168 17.3673C20.9803 17.8746 21.047 18.441 21.3474 18.8908C21.6478 19.3406 22.1455 19.6191 22.686 19.64C22.8709 19.6478 23.0192 19.7957 23.0273 19.9807C23.0411 20.3009 23.1474 20.6103 23.3333 20.8713V32H3.33333C2.22876 32 1.33333 31.1046 1.33333 30V5.99999C1.33333 4.89542 2.22876 3.99999 3.33333 3.99999H36.6667C37.7712 3.99999 38.6667 4.89542 38.6667 5.99999V30Z" fill="#0E3128"/>
<path d="M7.33333 26.6667C6.22876 26.6667 5.33333 25.7712 5.33333 24.6667V11.3333C5.33333 10.2288 6.22876 9.33333 7.33333 9.33333H19.3333C19.7015 9.33333 20 9.03486 20 8.66667C20 8.29848 19.7015 8 19.3333 8H7.33333C5.4933 8.0022 4.0022 9.4933 4 11.3333V24.6667C4.0022 26.5067 5.4933 27.9978 7.33333 28H20C20.3682 28 20.6667 27.7015 20.6667 27.3333C20.6667 26.9651 20.3682 26.6667 20 26.6667H7.33333Z" fill="#0E3128"/>
<path d="M7.99967 18.6667H17.333C17.7012 18.6667 17.9997 18.3683 17.9997 18.0001C17.9997 17.6319 17.7012 17.3334 17.333 17.3334H7.99967C7.63148 17.3334 7.33301 17.6319 7.33301 18.0001C7.33301 18.3683 7.63148 18.6667 7.99967 18.6667Z" fill="#0E3128"/>
<path d="M7.99967 16H17.333C17.7012 16 17.9997 15.7015 17.9997 15.3333C17.9997 14.9651 17.7012 14.6667 17.333 14.6667H7.99967C7.63148 14.6667 7.33301 14.9651 7.33301 15.3333C7.33301 15.7015 7.63148 16 7.99967 16Z" fill="#0E3128"/>
<path d="M7.99967 13.3332H17.333C17.7012 13.3332 17.9997 13.0348 17.9997 12.6666C17.9997 12.2984 17.7012 11.9999 17.333 11.9999H7.99967C7.63148 11.9999 7.33301 12.2984 7.33301 12.6666C7.33301 13.0348 7.63148 13.3332 7.99967 13.3332Z" fill="#0E3128"/>
<path d="M7.38873 24.9333C7.49481 25.1764 7.73487 25.3335 8.00006 25.3333C8.09185 25.3337 8.18269 25.3149 8.26673 25.278C8.88393 25.0487 9.45116 24.7026 9.9374 24.2587C10.1179 24.0785 10.2757 23.877 10.4074 23.6587C10.662 23.9449 10.9612 24.188 11.2934 24.3787C11.7567 24.6816 12.3334 24.7553 12.8581 24.5787C13.0592 24.5006 13.2411 24.3801 13.3914 24.2253C13.6931 24.4138 14.0254 24.5481 14.3734 24.622L14.8774 24.7413C15.9061 25.0427 16.975 25.1843 18.0467 25.1613C18.2843 25.1442 18.4947 25.0016 18.5986 24.7873C18.7026 24.5729 18.6843 24.3194 18.5506 24.1223C18.417 23.9251 18.1883 23.8142 17.9507 23.8313C17.0155 23.8435 16.084 23.7132 15.1881 23.4447L14.6727 23.3227C14.0507 23.1793 13.8907 22.9287 13.8247 22.752C13.7086 22.4418 13.3823 22.264 13.0586 22.3344C12.735 22.4049 12.5121 22.7023 12.5354 23.0327C12.5428 23.1522 12.4862 23.2667 12.3867 23.3333C12.231 23.3531 12.0735 23.3126 11.9467 23.22C11.4076 22.8843 11.0021 22.3714 10.8001 21.7693C10.6854 21.4593 10.3608 21.2802 10.0373 21.3483C9.71389 21.4165 9.48924 21.7114 9.5094 22.0413C9.52062 22.5182 9.33382 22.9785 8.9934 23.3127C8.62322 23.6364 8.19591 23.8883 7.7334 24.0553C7.57121 24.126 7.44376 24.2582 7.37911 24.4229C7.31446 24.5876 7.31793 24.7712 7.38873 24.9333Z" fill="#0E3128"/>
<path d="M28.6663 19.3333C31.6119 19.3333 33.9997 16.9455 33.9997 14C33.9997 11.0545 31.6119 8.66666 28.6663 8.66666C25.7208 8.66666 23.333 11.0545 23.333 14C23.3363 16.9441 25.7222 19.33 28.6663 19.3333ZM28.6663 9.99999C30.8755 9.99999 32.6663 11.7909 32.6663 14C32.6663 16.2091 30.8755 18 28.6663 18C26.4572 18 24.6663 16.2091 24.6663 14C24.6685 11.7918 26.4581 10.0022 28.6663 9.99999Z" fill="#0E3128"/>
</g>
<defs>
<clipPath id="clip0_153_10640">
<rect width="40" height="40" fill="white"/>
</clipPath>
</defs>
</svg>
