<svg width="28" height="28" viewBox="0 0 28 28" fill="none" xmlns="http://www.w3.org/2000/svg">
<path d="M16.3337 2.33325H7.00033C6.38149 2.33325 5.78799 2.57908 5.35041 3.01667C4.91282 3.45425 4.66699 4.04775 4.66699 4.66659V23.3333C4.66699 23.9521 4.91282 24.5456 5.35041 24.9832C5.78799 25.4208 6.38149 25.6666 7.00033 25.6666H21.0003C21.6192 25.6666 22.2127 25.4208 22.6502 24.9832C23.0878 24.5456 23.3337 23.9521 23.3337 23.3333V9.33325L16.3337 2.33325Z" stroke="#334840" stroke-width="2" stroke-linecap="round" stroke-linejoin="round"/>
<path d="M16.334 2.33325V9.33325H23.334" stroke="#334840" stroke-width="2" stroke-linecap="round" stroke-linejoin="round"/>
<path d="M18.6673 15.1665H9.33398" stroke="#334840" stroke-width="2" stroke-linecap="round" stroke-linejoin="round"/>
<path d="M18.6673 19.8333H9.33398" stroke="#334840" stroke-width="2" stroke-linecap="round" stroke-linejoin="round"/>
<path d="M11.6673 10.5H10.5007H9.33398" stroke="#334840" stroke-width="2" stroke-linecap="round" stroke-linejoin="round"/>
</svg>
