<svg width="40" height="40" viewBox="0 0 40 40" fill="none" xmlns="http://www.w3.org/2000/svg">
<path d="M12.3496 8.10019H26.7995C28.2078 8.10019 29.3494 9.24185 29.3494 10.6502V13.2001" stroke="#0E3128" stroke-width="2" stroke-linecap="round" stroke-linejoin="round"/>
<path d="M34.4495 23.4V16.6001C34.4495 14.7224 32.9273 13.2001 31.0496 13.2001H10.6498C7.83313 13.2001 5.5498 10.9168 5.5498 8.10019V23.4C5.5498 29.8111 5.5498 33.0166 7.54146 35.0083C9.53311 36.9999 12.7386 36.9999 19.1497 36.9999H20.8497C27.2607 36.9999 30.4662 36.9999 32.4579 35.0083C34.4495 33.0166 34.4495 29.8111 34.4495 23.4Z" fill="white"/>
<path d="M32.4579 35.0083L31.7508 34.3012L32.4579 35.0083ZM31.0496 4.00024C31.6018 4.00024 32.0496 3.55253 32.0496 3.00024C32.0496 2.44796 31.6018 2.00024 31.0496 2.00024V4.00024ZM33.4495 16.6001V23.4H35.4495V16.6001H33.4495ZM20.8497 35.9999H19.1497V37.9999H20.8497V35.9999ZM6.5498 23.4V8.10019H4.5498V23.4H6.5498ZM19.1497 35.9999C15.9159 35.9999 13.5911 35.9978 11.8215 35.7599C10.0807 35.5258 9.02762 35.0802 8.24857 34.3012L6.83435 35.7154C8.04695 36.928 9.59244 37.4782 11.555 37.742C13.4889 38.002 15.9724 37.9999 19.1497 37.9999V35.9999ZM4.5498 23.4C4.5498 26.5773 4.54768 29.0608 4.80768 30.9947C5.07154 32.9573 5.62176 34.5028 6.83435 35.7154L8.24857 34.3012C7.46951 33.5221 7.02389 32.469 6.78984 30.7282C6.55193 28.9586 6.5498 26.6338 6.5498 23.4H4.5498ZM33.4495 23.4C33.4495 26.6338 33.4474 28.9586 33.2095 30.7282C32.9754 32.469 32.5298 33.5221 31.7508 34.3012L33.165 35.7154C34.3776 34.5028 34.9278 32.9573 35.1917 30.9947C35.4516 29.0608 35.4495 26.5773 35.4495 23.4H33.4495ZM20.8497 37.9999C24.0269 37.9999 26.5104 38.002 28.4443 37.742C30.4069 37.4782 31.9524 36.928 33.165 35.7154L31.7508 34.3012C30.9717 35.0802 29.9186 35.5258 28.1778 35.7599C26.4082 35.9978 24.0834 35.9999 20.8497 35.9999V37.9999ZM31.0496 2.00024H10.6498V4.00024H31.0496V2.00024ZM10.6498 14.2001H31.0496V12.2001H10.6498V14.2001ZM4.5498 8.10019C4.5498 11.4691 7.28085 14.2001 10.6498 14.2001V12.2001C8.38542 12.2001 6.5498 10.3645 6.5498 8.10019H4.5498ZM10.6498 2.00024C7.28085 2.00024 4.5498 4.73129 4.5498 8.10019H6.5498C6.5498 5.83585 8.38542 4.00024 10.6498 4.00024V2.00024ZM35.4495 16.6001C35.4495 14.1701 33.4796 12.2001 31.0496 12.2001V14.2001C32.375 14.2001 33.4495 15.2746 33.4495 16.6001H35.4495Z" fill="#0E3128"/>
<path d="M25.0996 21.7002L14.8997 21.7002" stroke="#0E3128" stroke-width="2" stroke-linecap="round" stroke-linejoin="round"/>
<path d="M20 28.5L14.9 28.5" stroke="#0E3128" stroke-width="2" stroke-linecap="round" stroke-linejoin="round"/>
</svg>
