<svg width="48" height="48" viewBox="0 0 48 48" fill="none" xmlns="http://www.w3.org/2000/svg">
<path d="M14 22.5894C24.568 2.89312 37.727 2.666 42.9856 5.01448C45.334 10.273 45.1068 23.432 25.4106 34C25.2062 32.8258 24.0704 29.7498 21.1602 26.8398C18.2502 23.9296 15.1742 22.7938 14 22.5894Z" stroke="#BCE955" stroke-width="2.5" stroke-linecap="round" stroke-linejoin="round"/>
<path d="M28 33.6C32.0856 35.4668 32.5218 38.8138 33.0878 42C33.0878 42 41.6446 36.0962 36.1712 28" stroke="#BCE955" stroke-width="2.5" stroke-linecap="round" stroke-linejoin="round"/>
<path d="M14.4 19.9998C12.5333 15.9142 9.1861 15.478 6 14.912C6 14.912 11.9039 6.35507 20 11.8286" stroke="#BCE955" stroke-width="2.5" stroke-linecap="round" stroke-linejoin="round"/>
<path d="M12.4173 27.9996C11.1535 29.2634 9.00506 32.9284 10.5216 37.478C15.0712 38.9946 18.7362 36.8462 20 35.5824" stroke="#BCE955" stroke-width="2.5" stroke-linecap="round" stroke-linejoin="round"/>
<path d="M36.1906 15.506C36.1906 13.4656 34.5366 11.8115 32.4962 11.8115C30.4558 11.8115 28.8018 13.4656 28.8018 15.506C28.8018 17.5463 30.4558 19.2004 32.4962 19.2004C34.5366 19.2004 36.1906 17.5463 36.1906 15.506Z" stroke="#BCE955" stroke-width="2.5"/>
</svg>
