<svg width="48" height="48" viewBox="0 0 48 48" fill="none" xmlns="http://www.w3.org/2000/svg">
<path d="M6 24C15 24 24 15 24 6C24 15 33 24 42 24C33 24 24 33 24 42C24 33 15 24 6 24Z" stroke="#BCE955" stroke-width="2.5" stroke-linejoin="round"/>
<path d="M4 39C5.66666 39 9 35.6666 9 34C9 35.6666 12.3333 39 14 39C12.3333 39 9 42.3334 9 44C9 42.3334 5.66666 39 4 39Z" stroke="#BCE955" stroke-width="2.5" stroke-linejoin="round"/>
<path d="M32 10C34 10 38 6 38 4C38 6 42 10 44 10C42 10 38 14 38 16C38 14 34 10 32 10Z" stroke="#BCE955" stroke-width="2.5" stroke-linejoin="round"/>
</svg>
